<?xml version="1.0" encoding="UTF-8"?>
<svg id="Layer_2" data-name="Layer 2" xmlns="http://www.w3.org/2000/svg" viewBox="0 0 60.8 22.36">
  <defs>
    <style>
      .cls-1 {
        fill: #f7941d;
      }

      .cls-1, .cls-2 {
        stroke-width: 0px;
      }

      .cls-3 {
        font-family: 'AlteHaasGrotesk_Bold', 'Alte Haas Grotesk';
        font-size: 2.22px;
      }

      .cls-3, .cls-2 {
        fill: #2a2530;
      }

      .cls-4 {
        letter-spacing: -.02em;
      }

      .cls-5 {
        stroke-width: .5px;
      }

      .cls-5, .cls-6 {
        fill: none;
        stroke: #f7941d;
        stroke-miterlimit: 10;
      }

      .cls-6 {
        stroke-width: .75px;
      }
    </style>
  </defs>
  <g id="Autoescape">
    <g>
      <g>
        <path class="cls-1" d="M18.56,8.62h1.02c.09,0,.17,0,.26,0s.14.03.17.09.04.13.03.22l-.04.29-.15,1.09-.49,3.64-.1.71c0,.06-.02.13-.03.19-.01.06-.01.12,0,.17l-.02.12c0,.06-.01.11-.02.16,0,.05,0,.1.01.14.04.1.15.16.31.16h2.82c.06,0,.14,0,.24,0,.1,0,.19,0,.28,0,.09,0,.17.01.24.03s.12.04.14.07c.03.05.05.11.04.18l-.03.23-.07.55c0,.06-.01.12-.02.18,0,.06-.02.1-.04.14-.04.06-.09.11-.14.13-.04.03-.11.05-.19.05h-5.2c-.11,0-.21,0-.29-.02-.08-.01-.14-.05-.17-.11-.03-.05-.03-.11-.02-.19l.03-.22.11-.84.43-3.18.36-2.71.1-.76c0-.07.02-.14.03-.22.01-.07.04-.13.06-.17.04-.06.11-.1.21-.12.02,0,.03,0,.05,0,.02,0,.03,0,.05,0Z"/>
        <path class="cls-1" d="M26.8,8.71c.05.06.06.16.05.29l-.05.37-.04.32c-.02.11-.05.19-.11.23-.05.04-.12.06-.2.07-.08,0-.16.01-.25.01h-.67c-.09,0-.17,0-.23-.01s-.12-.03-.16-.07c-.03-.02-.04-.07-.05-.14,0-.07,0-.14,0-.23,0-.08.02-.17.03-.26.02-.09.03-.16.04-.23s.02-.12.03-.17c.01-.05.03-.1.06-.14.02-.03.05-.06.08-.07.03-.02.06-.03.1-.05.02,0,.04,0,.06,0s.04,0,.06,0h.88c.08,0,.16,0,.23.01.07,0,.12.03.16.07ZM25.84,16.52c-.02.16-.04.3-.07.41-.02.11-.11.19-.25.23-.05.02-.1.02-.16.02s-.12,0-.18,0h-.67c-.07,0-.14,0-.21-.01s-.11-.03-.14-.07c-.04-.06-.06-.13-.05-.21s.02-.17.03-.27l.68-5.06.03-.24c.01-.08.04-.14.07-.19.06-.06.13-.09.22-.11.02,0,.04,0,.07,0,.03,0,.05,0,.07,0h.6s.1,0,.16,0c.06,0,.11,0,.15,0h.1s.09.03.13.04c.04,0,.07.03.09.07.03.04.04.1.03.17s-.01.15-.02.23l-.68,5.03Z"/>
        <path class="cls-1" d="M30.79,10.82c.65-.02,1.18.08,1.59.29s.71.5.92.89c.1.19.17.41.2.66.01.04.02.09.02.16,0,.06,0,.12-.03.17-.04.09-.11.14-.19.15-.08.01-.18.02-.29.02h-.85c-.08,0-.14-.02-.18-.05-.06-.03-.1-.08-.11-.15s-.04-.14-.07-.21c-.04-.09-.08-.17-.12-.24-.05-.07-.1-.14-.17-.19-.1-.07-.22-.13-.35-.17-.05-.02-.09-.02-.14-.02s-.09,0-.13-.02h-.12c-.16,0-.29.02-.39.05-.24.07-.44.18-.61.33s-.3.33-.42.53c-.05.09-.09.18-.13.28s-.07.21-.11.32c-.01.03-.02.06-.03.1s-.01.06-.02.1c-.03.08-.05.19-.06.34-.02.14-.02.26-.02.34,0,.06-.01.11,0,.13,0,.06.01.11,0,.17,0,.06,0,.11,0,.17.04.18.09.35.16.5.07.15.16.28.28.38.03.02.07.05.13.08.08.06.17.09.26.11.09.02.2.03.34.05h.07s.06,0,.07-.01h.11c.06-.02.11-.03.17-.04.05-.01.11-.03.16-.04.25-.1.46-.26.61-.46.04-.04.07-.09.1-.14.03-.05.06-.1.08-.14.04-.09.08-.17.12-.23.03-.07.1-.12.19-.16.08-.03.19-.05.35-.04s.29,0,.4,0c.06,0,.11,0,.18,0s.11,0,.15.02h.1s.06.01.09.02c.03,0,.05.01.07.03.04.03.06.08.06.14,0,.06,0,.12-.03.19-.11.26-.23.5-.36.71-.41.62-.99,1.04-1.74,1.28-.08.02-.17.04-.26.05-.09.01-.18.03-.27.05-.05,0-.1.01-.15.01s-.1,0-.15.01h-.13s-.1.02-.18.02-.14-.01-.18-.02c-.06-.02-.12-.02-.17-.02-.05,0-.11,0-.16-.02-.04,0-.08-.01-.12-.02-.04,0-.08-.01-.12-.02-.08-.02-.17-.05-.24-.07-.08-.02-.15-.05-.22-.08-.35-.16-.64-.37-.86-.62-.22-.25-.39-.57-.5-.94-.03-.07-.05-.15-.06-.23s-.02-.17-.04-.26c0-.03,0-.06,0-.09s0-.06-.01-.1c0-.06,0-.11,0-.17s0-.12,0-.17l.03-.2s-.01-.09,0-.14.02-.1.04-.14c.01-.04.02-.08.01-.11,0-.03,0-.06.01-.1.02-.06.04-.11.04-.16,0-.05.01-.1.04-.14.06-.14.11-.28.15-.41s.1-.26.16-.39c.23-.41.5-.75.8-1.02s.68-.49,1.11-.66c.12-.05.24-.08.36-.1s.25-.05.38-.08c.07,0,.13-.01.18-.01s.12,0,.18-.01Z"/>
        <path class="cls-1" d="M36.79,8.71c.05.06.06.16.05.29l-.05.37-.04.32c-.02.11-.05.19-.11.23-.05.04-.12.06-.2.07-.08,0-.16.01-.25.01h-.67c-.09,0-.17,0-.23-.01s-.12-.03-.16-.07c-.03-.02-.04-.07-.05-.14,0-.07,0-.14,0-.23,0-.08.02-.17.03-.26.02-.09.03-.16.04-.23s.02-.12.03-.17c.01-.05.03-.1.06-.14.02-.03.05-.06.08-.07.03-.02.06-.03.1-.05.02,0,.04,0,.06,0s.04,0,.06,0h.88c.08,0,.16,0,.23.01.07,0,.12.03.16.07ZM35.82,16.52c-.02.16-.04.3-.07.41-.02.11-.11.19-.25.23-.05.02-.1.02-.16.02s-.12,0-.18,0h-.67c-.07,0-.14,0-.21-.01s-.11-.03-.14-.07c-.04-.06-.06-.13-.05-.21s.02-.17.03-.27l.68-5.06.03-.24c.01-.08.04-.14.07-.19.06-.06.13-.09.22-.11.02,0,.04,0,.07,0,.03,0,.05,0,.07,0h.6s.1,0,.16,0c.06,0,.11,0,.15,0h.1s.09.03.13.04c.04,0,.07.03.09.07.03.04.04.1.03.17s-.01.15-.02.23l-.68,5.03Z"/>
        <path class="cls-1" d="M38.99,9.14h.8c.12,0,.23,0,.32.02s.15.06.18.15c.01.04.01.09,0,.14l-.02.17-.07.54s-.01.09-.02.14c-.01.05-.02.1-.01.14l-.02.13c0,.06-.01.12-.01.17,0,.05.02.1.04.14.05.07.14.11.29.11.15,0,.29,0,.42,0h.14s.09,0,.13.02c.08.04.12.11.12.22,0,.1-.01.22-.03.35,0,.06-.01.11-.02.17,0,.06-.02.1-.04.14-.06.13-.15.2-.28.2-.13,0-.27.01-.43.01-.03,0-.07,0-.1,0-.04,0-.07,0-.09,0-.03,0-.06.01-.08,0-.02,0-.05,0-.07.02-.07.02-.12.05-.15.1-.04.05-.07.11-.09.19-.01.04-.02.08-.02.13,0,.05,0,.09-.02.13l-.1.74-.19,1.4c-.03.2-.04.37-.05.52,0,.15.02.28.1.39.03.05.08.08.15.1.07.02.13.04.2.05.02,0,.05.01.08,0,.03,0,.05,0,.07,0h.13c.09,0,.16,0,.23.01.06,0,.11.04.14.1.03.05.03.11.02.19l-.03.23c-.02.17-.05.32-.07.46-.02.14-.1.23-.24.28-.04.02-.08.02-.11.02-.03,0-.07,0-.11.02h-.12s-.04,0-.07,0c-.03,0-.06,0-.08,0-.04,0-.08.01-.13,0-.04,0-.09,0-.13,0s-.08,0-.12,0c-.04,0-.08,0-.11,0h-.13s-.08-.01-.13-.01-.09,0-.13-.01c-.06,0-.11-.02-.15-.02-.05,0-.09-.02-.14-.02-.09-.02-.17-.05-.24-.08-.08-.03-.15-.07-.21-.11-.02-.02-.04-.03-.06-.05s-.05-.04-.08-.07c-.01-.02-.03-.03-.05-.05-.02-.02-.04-.04-.05-.05-.09-.15-.15-.32-.18-.5-.01-.03-.01-.06,0-.09,0-.03,0-.06,0-.1,0-.02,0-.04,0-.06s0-.04,0-.06l.02-.12s0-.07,0-.11c0-.04.02-.08.02-.12l.06-.46.24-1.79.09-.64c0-.06.02-.11.03-.17.01-.06.01-.11,0-.16-.02-.11-.06-.18-.14-.22-.08-.04-.19-.05-.33-.04-.14.02-.25,0-.34-.04-.06-.02-.1-.06-.11-.11s-.02-.11-.02-.18l.03-.25c.02-.14.04-.26.07-.35.03-.09.1-.15.23-.18.03-.02.07-.02.1-.02.03,0,.07,0,.11,0,.12,0,.23,0,.34-.02.11-.01.18-.06.23-.14.03-.06.05-.12.07-.19.01-.07.03-.14.03-.22l.1-.74.03-.2c0-.07.03-.13.05-.18.05-.08.12-.13.2-.16.02,0,.04-.01.07,0,.03,0,.05,0,.07,0Z"/>
      </g>
      <g>
        <path class="cls-2" d="M49,9.84c.15.26.25.54.3.85s.03.69-.05,1.13c-.04.18-.08.34-.14.49s-.12.29-.19.41c-.02.03-.04.06-.05.09-.02.03-.03.06-.05.09-.04.06-.08.11-.11.16-.03.05-.07.1-.12.15-.19.22-.4.41-.65.55-.24.14-.52.26-.82.35-.09.03-.19.05-.28.06-.1,0-.19.02-.29.05-.05,0-.1.01-.15.01s-.1,0-.15.01h-1.83c-.12,0-.21.02-.28.07-.09.06-.14.15-.16.29l-.05.41-.19,1.58c-.01.1-.02.2-.03.31,0,.11-.04.2-.09.26-.04.06-.12.1-.23.13-.06.02-.12.02-.18.01-.06,0-.13-.01-.19-.01h-.7c-.09,0-.17,0-.25,0-.08,0-.13-.03-.18-.07-.04-.04-.06-.1-.06-.19s0-.17.02-.26l.87-7.18c.01-.11.03-.24.04-.4.01-.15.05-.26.09-.32.04-.05.1-.09.19-.12.02,0,.03,0,.05,0s.04,0,.05,0h3.47c.07,0,.14,0,.22,0,.07,0,.14,0,.2.02h.06s.08.02.13.02.09,0,.13.02c.04,0,.07.01.11.01s.07,0,.11.02c.12.04.25.08.37.11.12.04.24.09.34.15.04.03.08.06.12.08.05.02.09.06.13.1.04.02.07.05.09.08.02.03.06.06.09.09l.06.07c.08.1.15.19.2.29ZM47.44,11.81c.03-.09.05-.2.06-.33.01-.13.01-.24,0-.33-.03-.18-.07-.32-.13-.42s-.16-.2-.29-.29c-.11-.07-.25-.13-.42-.16-.17-.04-.36-.06-.56-.07-.2,0-.41,0-.63,0-.22,0-.42,0-.61,0-.02,0-.05.01-.07.02-.02,0-.04,0-.07,0-.08.03-.14.08-.17.14-.04.06-.07.15-.08.26l-.04.29-.14,1.14-.04.32c-.01.12,0,.21.03.27.03.05.07.08.13.11.06.02.13.04.21.04.08,0,.17,0,.26,0,.09,0,.18,0,.26,0,.42,0,.81-.02,1.17-.06s.64-.18.85-.42c.06-.07.11-.15.15-.23s.09-.18.13-.28Z"/>
        <path class="cls-2" d="M53.9,10.98c.09,0,.17,0,.23.02.07.02.12.05.15.11.04.06.05.17.03.33l-.05.41c-.01.09-.02.19-.03.3,0,.11-.03.2-.07.26-.04.06-.09.09-.15.11-.06.02-.13.02-.21.02s-.15,0-.24-.01c-.08,0-.16,0-.24.01-.06.02-.12.03-.17.03-.06,0-.11.01-.16.03-.13.04-.27.1-.4.17s-.25.16-.33.26c-.05.06-.1.13-.15.2s-.1.14-.15.21c-.03.06-.06.13-.09.2-.03.07-.05.13-.08.2-.02.06-.04.11-.05.17s-.02.12-.04.17c-.01.03-.02.06-.02.09,0,.03,0,.05-.02.08l-.02.19c-.02.06-.03.12-.03.19s0,.13-.01.2l-.09.77-.12,1.02c-.01.1-.03.2-.05.29-.02.09-.05.16-.1.22-.02.02-.05.04-.08.05-.04.01-.08.02-.12.03h-.06s-.09.01-.13.01h-.65s-.1-.01-.15-.01h-.16s-.08-.03-.12-.04c-.04-.01-.06-.04-.07-.08-.03-.04-.04-.1-.03-.17,0-.08.01-.15.02-.23l.1-.82.41-3.38.11-.89.03-.23c0-.08.03-.14.07-.19.05-.06.11-.1.19-.12s.18-.02.29-.02h.61c.1,0,.18,0,.25.02.07.01.12.05.15.11.02.04.03.1.02.17,0,.07,0,.14,0,.21,0,.07,0,.13.02.19.01.06.05.08.1.08.02-.02.04-.02.05-.02.02,0,.03,0,.05-.02.05-.04.1-.09.14-.14.04-.05.09-.1.16-.14.03-.02.07-.05.09-.08.03-.03.06-.05.09-.08.08-.05.16-.1.24-.14.08-.05.17-.09.25-.13.08-.03.17-.06.26-.08s.18-.05.27-.07c.02,0,.07,0,.14,0,.07,0,.11,0,.13-.02Z"/>
        <path class="cls-2" d="M60.67,13.98s.01.12,0,.2-.03.16-.05.2v.12c-.04.06-.05.13-.06.19s-.02.13-.04.19c-.02.06-.04.11-.06.16-.01.05-.03.1-.04.16-.04.09-.08.18-.12.27-.03.09-.08.18-.13.26-.21.38-.47.7-.77.94-.3.24-.65.44-1.06.6-.1.04-.2.07-.3.09-.1.02-.21.04-.31.07-.04.02-.09.02-.13.02s-.09,0-.13.01c-.02,0-.05,0-.08,0-.03,0-.06,0-.08,0-.04,0-.11.01-.19.02-.09,0-.16,0-.2-.02h-.12s-.08-.01-.13,0c-.04,0-.09,0-.12-.02-.03,0-.06-.01-.09-.01s-.06,0-.1-.01c-.08-.02-.15-.04-.23-.06-.08-.02-.15-.04-.22-.07-.09-.03-.18-.06-.26-.1-.08-.03-.16-.07-.24-.12-.26-.17-.48-.36-.65-.59-.17-.22-.31-.49-.41-.8-.03-.07-.05-.15-.06-.23,0-.08-.02-.16-.03-.25-.01-.04-.02-.08-.01-.11s0-.07-.01-.11c0-.06,0-.13,0-.2s0-.13,0-.2c0-.04,0-.08,0-.11v-.11s0-.12.02-.2c.01-.09.03-.16.05-.2v-.08s.03-.08.03-.13c0-.04.01-.09.03-.13.01-.04.02-.08.03-.11s.02-.07.04-.11c.04-.1.08-.21.12-.31s.08-.2.13-.29c.18-.33.39-.6.62-.82.23-.22.49-.42.8-.61.08-.04.17-.08.27-.11.09-.03.18-.07.28-.11.11-.04.22-.07.33-.08.11-.02.23-.04.36-.07.06,0,.13-.01.18-.01s.11,0,.17-.01c.46,0,.86.04,1.19.14s.61.25.85.43c.08.06.16.13.24.21.08.08.15.16.2.25.05.08.1.16.14.24.04.08.09.16.13.25.04.09.08.18.1.28s.04.21.07.32c.02.06.03.13.03.2s.01.14.02.22c0,.03,0,.06,0,.1s0,.06,0,.1c.01.04,0,.08,0,.13s-.02.09,0,.13ZM58.93,14.41s.02-.1.03-.17.01-.13,0-.17v-.1s0-.08,0-.13,0-.09,0-.13c0-.03,0-.06,0-.07,0-.06-.01-.13-.02-.2s-.01-.13-.03-.2c-.06-.21-.15-.39-.25-.53s-.25-.27-.44-.35c-.05-.02-.09-.03-.14-.04s-.1-.03-.15-.04c-.06-.02-.13-.02-.2-.02-.07,0-.15,0-.22,0-.03.02-.05.02-.09.02-.03,0-.06,0-.08,0-.06.02-.11.03-.17.04-.05.01-.1.03-.14.05-.21.09-.39.21-.53.38-.14.16-.26.35-.36.57-.03.08-.06.16-.08.25s-.05.18-.07.26c-.01.04-.02.08-.03.12v.12c-.04.06-.05.14-.06.25,0,.11,0,.2,0,.25v.11c0,.06,0,.13,0,.19s0,.12.01.19c.05.24.11.43.19.58s.2.28.39.4c.05.04.11.07.17.1.06.02.13.04.2.06.03,0,.06.01.08,0,.02,0,.05,0,.08,0,.03,0,.06.01.1.02.03,0,.07,0,.1,0h.1c.07-.02.13-.03.2-.04.06,0,.13-.02.19-.05.22-.08.4-.19.54-.32.14-.14.27-.3.39-.5.04-.08.08-.16.1-.24.03-.08.06-.16.09-.25.01-.03.02-.06.02-.09s.01-.06.02-.09v-.11s.03-.07.04-.11Z"/>
      </g>
    </g>
    <text class="cls-3" transform="translate(17.05 20.4)"><tspan x="0" y="0">Ge</tspan><tspan class="cls-4" x="2.96" y="0">r</tspan><tspan x="3.78" y="0">enciamento de P</tspan><tspan class="cls-4" x="21.57" y="0">r</tspan><tspan x="22.39" y="0">ocessos Licitatórios</tspan></text>
  </g>
  <g id="Layer_5" data-name="Layer 5">
    <path class="cls-6" d="M.42,16.72c-.18.72.15,1.49.83,1.77.5.21.71.1.96.05.79-.18,4.97-6.62,6.63-9.43.19-.32,1.48,1.16,1.61,1.06.29-.24,2.45-3.1,2.45-3.1.09-.11.07-.28-.04-.37l-4.34-3.44c-.12-.1-.29-.08-.38.05,0,0-2.5,2.93-2.47,3.27.02.23,1.1.85,1.53,1.11.11.07.05.33-.03.44,0,0-2.1,2.41-6.28,7.73-.23.29-.47.86-.47.86Z"/>
    <path class="cls-6" d="M11.46,10.66c.68-.83,2.21-2.75,2.84-3.54.16-.2.44-.23.64-.08l1.57,1.18c.21.16.25.47.07.67l-3,3.67c-.1.11-.27.14-.39.06l-1.6-1.28c-.24-.15-.29-.47-.12-.68Z"/>
    <path class="cls-6" d="M2.42,4.14c.67-.84,2.16-2.79,2.77-3.59.15-.2.43-.24.64-.09l1.59,1.16c.22.16.26.46.08.67l-2.94,3.72c-.1.12-.26.14-.39.06l-1.62-1.25c-.24-.15-.3-.46-.13-.68Z"/>
    <line class="cls-5" x1="17.05" y1="22.11" x2="60.8" y2="22.11"/>
  </g>
</svg>